# xmcd
# Track frame offsets:
# 150
# 10949
# 23080
# 36286
# 49936
# 63794
# 78420
# 93879
# 105729
# 118531
# 133008
# 147594
# 161445
# 175756
# 188490
# 202399
#
# Disc length: 2861 seconds
# Revision: 0
# Processed by: cddbd v1.5.1PL0 Copyright (c) Steve Scherf et al.
# Submitted via: VisiTrax 2.9.9.209 - For more info visit www.synapsa.com
#
DISCID=d50b2b10
DTITLE=DINAH SHORE - LITTLE WHITE LIES
DYEAR=1900
DGENRE=ROCK
TTITLE0=LITTLE WHITE LIES
TTITLE1=THERELL BE SOME CHANGES MADE
TTITLE2=MAMA DO I GOTTA
TTITLE3=SHOO FLY PIE
TTITLE4=THAT LITTLE DREAM GOT NOWHERE
TTITLE5=THE THRILL IS GONE
TTITLE6=WHEN AM I GONNA KISS YOU GOOD MORNING
TTITLE7=YOULL ALWAYS BE THE ONE I LOVE
TTITLE8=COAX ME A LITTLE BIT
TTITLE9=ASK ANYONE WHO KNOWS
TTITLE10=ALAWAYS TRUE TO YOU IN MY FASHION
TTITLE11=TWO SILHOUETTES
TTITLE12=WHOLL BUY MY VIOLETS
TTITLE13=POPPA DONT PREACH TO ME
TTITLE14=A RAINY NIGHT IN RIO
TTITLE15=MY GUY
EXTD=
EXTT0=
EXTT1=
EXTT2=
EXTT3=
EXTT4=
EXTT5=
EXTT6=
EXTT7=
EXTT8=
EXTT9=
EXTT10=
EXTT11=
EXTT12=
EXTT13=
EXTT14=
EXTT15=
PLAYORDER=
